<svg width="32" height="32" viewBox="0 0 32 32" fill="none" xmlns="http://www.w3.org/2000/svg">
  <!-- Background circle with gradient -->
  <defs>
    <linearGradient id="bgGradient" x1="0%" y1="0%" x2="100%" y2="100%">
      <stop offset="0%" style="stop-color:#3B82F6;stop-opacity:1" />
      <stop offset="100%" style="stop-color:#1D4ED8;stop-opacity:1" />
    </linearGradient>
    <linearGradient id="iconGradient" x1="0%" y1="0%" x2="100%" y2="100%">
      <stop offset="0%" style="stop-color:#FFFFFF;stop-opacity:1" />
      <stop offset="100%" style="stop-color:#F1F5F9;stop-opacity:1" />
    </linearGradient>
  </defs>
  
  <!-- Main background circle -->
  <circle cx="16" cy="16" r="15" fill="url(#bgGradient)" stroke="#1E40AF" stroke-width="1"/>
  
  <!-- Calculator body -->
  <rect x="8" y="6" width="16" height="20" rx="2" fill="url(#iconGradient)" stroke="#64748B" stroke-width="0.5"/>
  
  <!-- Calculator screen -->
  <rect x="9" y="7" width="14" height="4" rx="1" fill="#1E293B" stroke="#475569" stroke-width="0.5"/>
  
  <!-- Screen display -->
  <rect x="10" y="8" width="12" height="2" rx="0.5" fill="#10B981"/>
  
  <!-- Calculator buttons -->
  <!-- Row 1 -->
  <rect x="9" y="12" width="3" height="2.5" rx="0.5" fill="#F59E0B" stroke="#D97706" stroke-width="0.3"/>
  <rect x="13" y="12" width="3" height="2.5" rx="0.5" fill="#EF4444" stroke="#DC2626" stroke-width="0.3"/>
  <rect x="17" y="12" width="3" height="2.5" rx="0.5" fill="#8B5CF6" stroke="#7C3AED" stroke-width="0.3"/>
  <rect x="21" y="12" width="2" height="2.5" rx="0.5" fill="#10B981" stroke="#059669" stroke-width="0.3"/>
  
  <!-- Row 2 -->
  <rect x="9" y="15" width="3" height="2.5" rx="0.5" fill="#6B7280" stroke="#4B5563" stroke-width="0.3"/>
  <rect x="13" y="15" width="3" height="2.5" rx="0.5" fill="#6B7280" stroke="#4B5563" stroke-width="0.3"/>
  <rect x="17" y="15" width="3" height="2.5" rx="0.5" fill="#6B7280" stroke="#4B5563" stroke-width="0.3"/>
  <rect x="21" y="15" width="2" height="2.5" rx="0.5" fill="#F59E0B" stroke="#D97706" stroke-width="0.3"/>
  
  <!-- Row 3 -->
  <rect x="9" y="18" width="3" height="2.5" rx="0.5" fill="#6B7280" stroke="#4B5563" stroke-width="0.3"/>
  <rect x="13" y="18" width="3" height="2.5" rx="0.5" fill="#6B7280" stroke="#4B5563" stroke-width="0.3"/>
  <rect x="17" y="18" width="3" height="2.5" rx="0.5" fill="#6B7280" stroke="#4B5563" stroke-width="0.3"/>
  <rect x="21" y="18" width="2" height="2.5" rx="0.5" fill="#EF4444" stroke="#DC2626" stroke-width="0.3"/>
  
  <!-- Row 4 -->
  <rect x="9" y="21" width="3" height="2.5" rx="0.5" fill="#6B7280" stroke="#4B5563" stroke-width="0.3"/>
  <rect x="13" y="21" width="3" height="2.5" rx="0.5" fill="#6B7280" stroke="#4B5563" stroke-width="0.3"/>
  <rect x="17" y="21" width="3" height="2.5" rx="0.5" fill="#6B7280" stroke="#4B5563" stroke-width="0.3"/>
  <rect x="21" y="21" width="2" height="5.5" rx="0.5" fill="#3B82F6" stroke="#2563EB" stroke-width="0.3"/>
  
  <!-- Small gear icon overlay -->
  <circle cx="26" cy="6" r="3" fill="url(#iconGradient)" stroke="#64748B" stroke-width="0.5"/>
  <circle cx="26" cy="6" r="1.5" fill="#3B82F6"/>
  <circle cx="26" cy="6" r="0.5" fill="white"/>
  
  <!-- Gear teeth -->
  <rect x="25.5" y="3" width="1" height="1" rx="0.2" fill="#64748B"/>
  <rect x="25.5" y="8" width="1" height="1" rx="0.2" fill="#64748B"/>
  <rect x="23" y="5.5" width="1" height="1" rx="0.2" fill="#64748B"/>
  <rect x="28" y="5.5" width="1" height="1" rx="0.2" fill="#64748B"/>
  
  <!-- Subtle glow effect -->
  <circle cx="16" cy="16" r="14" fill="none" stroke="rgba(59, 130, 246, 0.3)" stroke-width="0.5"/>
</svg> 